<mxfile host="app.diagrams.net" modified="2023-02-16T11:37:11.777Z" agent="5.0 (Windows NT 10.0; Win64; x64) AppleWebKit/537.36 (KHTML, like Gecko) Chrome/110.0.0.0 Safari/537.36" etag="O1QJbj_UH1dfJGuybzny" version="20.8.20" type="github">
  <diagram id="C5RBs43oDa-KdzZeNtuy" name="Page-1">
    <mxGraphModel dx="1434" dy="764" grid="1" gridSize="10" guides="1" tooltips="1" connect="1" arrows="1" fold="1" page="1" pageScale="1" pageWidth="827" pageHeight="1169" math="0" shadow="0">
      <root>
        <mxCell id="WIyWlLk6GJQsqaUBKTNV-0" />
        <mxCell id="WIyWlLk6GJQsqaUBKTNV-1" parent="WIyWlLk6GJQsqaUBKTNV-0" />
        <mxCell id="HesoKTyK_erUlwiVtJAj-3" style="edgeStyle=orthogonalEdgeStyle;rounded=0;orthogonalLoop=1;jettySize=auto;html=1;" edge="1" parent="WIyWlLk6GJQsqaUBKTNV-1" source="HesoKTyK_erUlwiVtJAj-0" target="HesoKTyK_erUlwiVtJAj-2">
          <mxGeometry relative="1" as="geometry" />
        </mxCell>
        <mxCell id="HesoKTyK_erUlwiVtJAj-0" value="Start" style="ellipse;whiteSpace=wrap;html=1;" vertex="1" parent="WIyWlLk6GJQsqaUBKTNV-1">
          <mxGeometry x="200" y="90" width="120" height="80" as="geometry" />
        </mxCell>
        <mxCell id="HesoKTyK_erUlwiVtJAj-1" value="Stop" style="ellipse;whiteSpace=wrap;html=1;" vertex="1" parent="WIyWlLk6GJQsqaUBKTNV-1">
          <mxGeometry x="520" y="530" width="120" height="80" as="geometry" />
        </mxCell>
        <mxCell id="HesoKTyK_erUlwiVtJAj-6" style="edgeStyle=orthogonalEdgeStyle;rounded=0;orthogonalLoop=1;jettySize=auto;html=1;" edge="1" parent="WIyWlLk6GJQsqaUBKTNV-1" source="HesoKTyK_erUlwiVtJAj-2" target="HesoKTyK_erUlwiVtJAj-5">
          <mxGeometry relative="1" as="geometry" />
        </mxCell>
        <mxCell id="HesoKTyK_erUlwiVtJAj-2" value="Podaj tablice: tab i szukana wartosc: x" style="rounded=0;whiteSpace=wrap;html=1;" vertex="1" parent="WIyWlLk6GJQsqaUBKTNV-1">
          <mxGeometry x="200" y="210" width="120" height="60" as="geometry" />
        </mxCell>
        <mxCell id="HesoKTyK_erUlwiVtJAj-10" style="edgeStyle=orthogonalEdgeStyle;rounded=0;orthogonalLoop=1;jettySize=auto;html=1;entryX=0.5;entryY=0;entryDx=0;entryDy=0;" edge="1" parent="WIyWlLk6GJQsqaUBKTNV-1" source="HesoKTyK_erUlwiVtJAj-5" target="HesoKTyK_erUlwiVtJAj-9">
          <mxGeometry relative="1" as="geometry" />
        </mxCell>
        <mxCell id="HesoKTyK_erUlwiVtJAj-5" value="i =&amp;nbsp; 0" style="whiteSpace=wrap;html=1;rounded=0;" vertex="1" parent="WIyWlLk6GJQsqaUBKTNV-1">
          <mxGeometry x="200" y="300" width="120" height="50" as="geometry" />
        </mxCell>
        <mxCell id="HesoKTyK_erUlwiVtJAj-8" style="edgeStyle=orthogonalEdgeStyle;rounded=0;orthogonalLoop=1;jettySize=auto;html=1;" edge="1" parent="WIyWlLk6GJQsqaUBKTNV-1" source="HesoKTyK_erUlwiVtJAj-7" target="HesoKTyK_erUlwiVtJAj-1">
          <mxGeometry relative="1" as="geometry" />
        </mxCell>
        <mxCell id="HesoKTyK_erUlwiVtJAj-7" value="pokaz i" style="rounded=0;whiteSpace=wrap;html=1;" vertex="1" parent="WIyWlLk6GJQsqaUBKTNV-1">
          <mxGeometry x="520" y="420" width="120" height="60" as="geometry" />
        </mxCell>
        <mxCell id="HesoKTyK_erUlwiVtJAj-14" style="edgeStyle=orthogonalEdgeStyle;rounded=0;orthogonalLoop=1;jettySize=auto;html=1;entryX=0;entryY=0.5;entryDx=0;entryDy=0;" edge="1" parent="WIyWlLk6GJQsqaUBKTNV-1" source="HesoKTyK_erUlwiVtJAj-9" target="HesoKTyK_erUlwiVtJAj-13">
          <mxGeometry relative="1" as="geometry" />
        </mxCell>
        <mxCell id="HesoKTyK_erUlwiVtJAj-9" value="i &amp;lt; dlugosc tab" style="rhombus;whiteSpace=wrap;html=1;" vertex="1" parent="WIyWlLk6GJQsqaUBKTNV-1">
          <mxGeometry x="210" y="400" width="100" height="100" as="geometry" />
        </mxCell>
        <mxCell id="HesoKTyK_erUlwiVtJAj-17" style="edgeStyle=orthogonalEdgeStyle;rounded=0;orthogonalLoop=1;jettySize=auto;html=1;" edge="1" parent="WIyWlLk6GJQsqaUBKTNV-1" source="HesoKTyK_erUlwiVtJAj-13" target="HesoKTyK_erUlwiVtJAj-16">
          <mxGeometry relative="1" as="geometry" />
        </mxCell>
        <mxCell id="HesoKTyK_erUlwiVtJAj-19" style="edgeStyle=orthogonalEdgeStyle;rounded=0;orthogonalLoop=1;jettySize=auto;html=1;entryX=0;entryY=0.5;entryDx=0;entryDy=0;" edge="1" parent="WIyWlLk6GJQsqaUBKTNV-1" source="HesoKTyK_erUlwiVtJAj-13" target="HesoKTyK_erUlwiVtJAj-7">
          <mxGeometry relative="1" as="geometry" />
        </mxCell>
        <mxCell id="HesoKTyK_erUlwiVtJAj-13" value="tab[i] == x" style="rhombus;whiteSpace=wrap;html=1;" vertex="1" parent="WIyWlLk6GJQsqaUBKTNV-1">
          <mxGeometry x="360" y="410" width="80" height="80" as="geometry" />
        </mxCell>
        <mxCell id="HesoKTyK_erUlwiVtJAj-18" style="edgeStyle=orthogonalEdgeStyle;rounded=0;orthogonalLoop=1;jettySize=auto;html=1;entryX=0.5;entryY=1;entryDx=0;entryDy=0;" edge="1" parent="WIyWlLk6GJQsqaUBKTNV-1" source="HesoKTyK_erUlwiVtJAj-16" target="HesoKTyK_erUlwiVtJAj-9">
          <mxGeometry relative="1" as="geometry" />
        </mxCell>
        <mxCell id="HesoKTyK_erUlwiVtJAj-16" value="i++" style="whiteSpace=wrap;html=1;" vertex="1" parent="WIyWlLk6GJQsqaUBKTNV-1">
          <mxGeometry x="340" y="540" width="120" height="60" as="geometry" />
        </mxCell>
        <mxCell id="HesoKTyK_erUlwiVtJAj-21" value="Actor" style="shape=umlActor;verticalLabelPosition=bottom;verticalAlign=top;html=1;outlineConnect=0;" vertex="1" parent="WIyWlLk6GJQsqaUBKTNV-1">
          <mxGeometry x="530" y="360" width="30" height="60" as="geometry" />
        </mxCell>
        <mxCell id="HesoKTyK_erUlwiVtJAj-23" value="" style="curved=1;endArrow=classic;html=1;rounded=0;" edge="1" parent="WIyWlLk6GJQsqaUBKTNV-1">
          <mxGeometry width="50" height="50" relative="1" as="geometry">
            <mxPoint x="555" y="380" as="sourcePoint" />
            <mxPoint x="610" y="370" as="targetPoint" />
            <Array as="points">
              <mxPoint x="580" y="400" />
              <mxPoint x="560" y="350" />
              <mxPoint x="590" y="370" />
            </Array>
          </mxGeometry>
        </mxCell>
        <mxCell id="HesoKTyK_erUlwiVtJAj-24" value="Actor" style="shape=umlActor;verticalLabelPosition=bottom;verticalAlign=top;html=1;outlineConnect=0;" vertex="1" parent="WIyWlLk6GJQsqaUBKTNV-1">
          <mxGeometry x="600" y="360" width="30" height="60" as="geometry" />
        </mxCell>
      </root>
    </mxGraphModel>
  </diagram>
</mxfile>
